<?xml version="1.0" encoding="UTF-8"?>
<svg width="24px" height="24px" viewBox="0 0 24 24" version="1.1" xmlns="http://www.w3.org/2000/svg">
    <path d="M17.05,20.28c-0.98,0.95-2.05,0.8-3.08,0.35c-1.09-0.46-2.09-0.48-3.24,0c-1.44,0.62-2.2,0.44-3.06-0.35C2.79,15.25,3.51,7.59,9.05,7.31c1.35,0.07,2.29,0.74,3.08,0.78c1.18-0.19,2.31-0.89,3.51-0.84c1.54,0.07,2.7,0.61,3.44,1.57c-3.14,1.88-2.29,5.13,0.75,6.41c-0.6,1.9-1.36,3.79-2.78,5.06z M12.03,7.25c-0.15-2.23,1.66-4.07,3.74-4.25c0.29,2.58-2.34,4.5-3.74,4.25z" fill="currentColor"/>
</svg> 